<svg xmlns="http://www.w3.org/2000/svg" viewBox="0 0 680 348" width="680" height="348" font-family="Segoe UI, Helvetica, Arial, sans-serif" role="img" aria-label="Coast, then resume easy">
<rect width="680" height="348" rx="8" fill="#FFFFFF"/>
<text x="48" y="24" font-size="15" font-weight="600" fill="#2C2C2A">Coast, then resume easy</text>
<rect x="93.0" y="40" width="7.4" height="256" fill="#EF9F27" fill-opacity="0.16"/>
<rect x="99.9" y="40" width="7.4" height="256" fill="#EF9F27" fill-opacity="0.16"/>
<rect x="106.8" y="40" width="7.4" height="256" fill="#EF9F27" fill-opacity="0.16"/>
<rect x="113.8" y="40" width="7.4" height="256" fill="#EF9F27" fill-opacity="0.16"/>
<rect x="120.7" y="40" width="7.4" height="256" fill="#EF9F27" fill-opacity="0.16"/>
<rect x="127.6" y="40" width="7.4" height="256" fill="#EF9F27" fill-opacity="0.16"/>
<rect x="134.5" y="40" width="7.4" height="256" fill="#EF9F27" fill-opacity="0.16"/>
<rect x="141.4" y="40" width="7.4" height="256" fill="#EF9F27" fill-opacity="0.16"/>
<rect x="148.4" y="40" width="7.4" height="256" fill="#EF9F27" fill-opacity="0.16"/>
<rect x="155.3" y="40" width="7.4" height="256" fill="#EF9F27" fill-opacity="0.16"/>
<rect x="162.2" y="40" width="7.4" height="256" fill="#EF9F27" fill-opacity="0.16"/>
<rect x="169.1" y="40" width="7.4" height="256" fill="#EF9F27" fill-opacity="0.16"/>
<rect x="176.0" y="40" width="7.4" height="256" fill="#EF9F27" fill-opacity="0.16"/>
<rect x="183.0" y="40" width="7.4" height="256" fill="#EF9F27" fill-opacity="0.16"/>
<rect x="189.9" y="40" width="7.4" height="256" fill="#EF9F27" fill-opacity="0.16"/>
<rect x="196.8" y="40" width="7.4" height="256" fill="#EF9F27" fill-opacity="0.16"/>
<rect x="203.7" y="40" width="7.4" height="256" fill="#EF9F27" fill-opacity="0.16"/>
<rect x="210.7" y="40" width="7.4" height="256" fill="#EF9F27" fill-opacity="0.16"/>
<rect x="217.6" y="40" width="7.4" height="256" fill="#EF9F27" fill-opacity="0.16"/>
<rect x="224.5" y="40" width="7.4" height="256" fill="#EF9F27" fill-opacity="0.16"/>
<rect x="231.4" y="40" width="7.4" height="256" fill="#EF9F27" fill-opacity="0.16"/>
<rect x="238.3" y="40" width="7.4" height="256" fill="#EF9F27" fill-opacity="0.16"/>
<rect x="245.3" y="40" width="7.4" height="256" fill="#EF9F27" fill-opacity="0.16"/>
<rect x="252.2" y="40" width="7.4" height="256" fill="#EF9F27" fill-opacity="0.16"/>
<rect x="259.1" y="40" width="7.4" height="256" fill="#EF9F27" fill-opacity="0.16"/>
<rect x="266.0" y="40" width="7.4" height="256" fill="#EF9F27" fill-opacity="0.16"/>
<rect x="272.9" y="40" width="7.4" height="256" fill="#EF9F27" fill-opacity="0.16"/>
<rect x="279.9" y="40" width="7.4" height="256" fill="#EF9F27" fill-opacity="0.16"/>
<rect x="286.8" y="40" width="7.4" height="256" fill="#1D9E75" fill-opacity="0.16"/>
<rect x="293.7" y="40" width="7.4" height="256" fill="#1D9E75" fill-opacity="0.16"/>
<rect x="300.6" y="40" width="7.4" height="256" fill="#1D9E75" fill-opacity="0.16"/>
<rect x="307.6" y="40" width="7.4" height="256" fill="#1D9E75" fill-opacity="0.16"/>
<rect x="314.5" y="40" width="7.4" height="256" fill="#1D9E75" fill-opacity="0.16"/>
<rect x="321.4" y="40" width="7.4" height="256" fill="#1D9E75" fill-opacity="0.16"/>
<rect x="328.3" y="40" width="7.4" height="256" fill="#1D9E75" fill-opacity="0.16"/>
<rect x="335.2" y="40" width="7.4" height="256" fill="#1D9E75" fill-opacity="0.16"/>
<line x1="48" x2="664" y1="222.0" y2="222.0" stroke="#D3D1C7" stroke-width="0.6"/>
<text x="42" y="226.0" text-anchor="end" font-size="11" fill="#5F5E5A">0</text>
<line x1="48" x2="664" y1="179.2" y2="179.2" stroke="#D3D1C7" stroke-width="0.6"/>
<text x="42" y="183.2" text-anchor="end" font-size="11" fill="#5F5E5A">20</text>
<line x1="48" x2="664" y1="136.4" y2="136.4" stroke="#D3D1C7" stroke-width="0.6"/>
<text x="42" y="140.4" text-anchor="end" font-size="11" fill="#5F5E5A">40</text>
<line x1="48" x2="664" y1="93.5" y2="93.5" stroke="#D3D1C7" stroke-width="0.6"/>
<text x="42" y="97.5" text-anchor="end" font-size="11" fill="#5F5E5A">60</text>
<line x1="48" x2="664" y1="50.7" y2="50.7" stroke="#D3D1C7" stroke-width="0.6"/>
<text x="42" y="54.7" text-anchor="end" font-size="11" fill="#5F5E5A">80</text>
<text x="42" y="34" text-anchor="end" font-size="11" fill="#5F5E5A">mph</text>
<line x1="48" x2="664" y1="296" y2="296" stroke="#D3D1C7" stroke-width="0.6"/>
<text x="42" y="256" text-anchor="end" font-size="11" fill="#5F5E5A">W</text>
<rect x="66.8" y="276.0" width="4" height="20.0" fill="#B4B2A9"/>
<rect x="73.7" y="276.0" width="4" height="20.0" fill="#B4B2A9"/>
<rect x="80.6" y="276.0" width="4" height="20.0" fill="#B4B2A9"/>
<rect x="87.5" y="276.0" width="4" height="20.0" fill="#B4B2A9"/>
<rect x="94.4" y="276.0" width="4" height="20.0" fill="#B4B2A9"/>
<rect x="101.4" y="276.0" width="4" height="20.0" fill="#B4B2A9"/>
<rect x="108.3" y="276.0" width="4" height="20.0" fill="#B4B2A9"/>
<rect x="115.2" y="276.0" width="4" height="20.0" fill="#B4B2A9"/>
<rect x="122.1" y="276.0" width="4" height="20.0" fill="#B4B2A9"/>
<rect x="129.1" y="276.0" width="4" height="20.0" fill="#B4B2A9"/>
<rect x="136.0" y="276.0" width="4" height="20.0" fill="#B4B2A9"/>
<rect x="142.9" y="276.0" width="4" height="20.0" fill="#B4B2A9"/>
<rect x="149.8" y="276.0" width="4" height="20.0" fill="#B4B2A9"/>
<rect x="156.7" y="276.0" width="4" height="20.0" fill="#B4B2A9"/>
<rect x="163.7" y="276.0" width="4" height="20.0" fill="#B4B2A9"/>
<rect x="170.6" y="276.0" width="4" height="20.0" fill="#B4B2A9"/>
<rect x="177.5" y="276.0" width="4" height="20.0" fill="#B4B2A9"/>
<rect x="184.4" y="276.0" width="4" height="20.0" fill="#B4B2A9"/>
<rect x="191.3" y="276.0" width="4" height="20.0" fill="#B4B2A9"/>
<rect x="198.3" y="276.0" width="4" height="20.0" fill="#B4B2A9"/>
<rect x="205.2" y="276.0" width="4" height="20.0" fill="#B4B2A9"/>
<rect x="212.1" y="276.0" width="4" height="20.0" fill="#B4B2A9"/>
<rect x="219.0" y="276.0" width="4" height="20.0" fill="#B4B2A9"/>
<rect x="226.0" y="276.0" width="4" height="20.0" fill="#B4B2A9"/>
<rect x="232.9" y="276.0" width="4" height="20.0" fill="#B4B2A9"/>
<rect x="239.8" y="276.0" width="4" height="20.0" fill="#B4B2A9"/>
<rect x="246.7" y="276.0" width="4" height="20.0" fill="#B4B2A9"/>
<rect x="253.6" y="276.0" width="4" height="20.0" fill="#B4B2A9"/>
<rect x="260.6" y="276.0" width="4" height="20.0" fill="#B4B2A9"/>
<rect x="267.5" y="276.0" width="4" height="20.0" fill="#B4B2A9"/>
<rect x="274.4" y="276.0" width="4" height="20.0" fill="#B4B2A9"/>
<rect x="281.3" y="276.0" width="4" height="20.0" fill="#B4B2A9"/>
<rect x="343.6" y="285.0" width="4" height="11.0" fill="#B4B2A9"/>
<rect x="350.5" y="285.0" width="4" height="11.0" fill="#B4B2A9"/>
<rect x="357.5" y="285.0" width="4" height="11.0" fill="#B4B2A9"/>
<rect x="364.4" y="285.0" width="4" height="11.0" fill="#B4B2A9"/>
<rect x="371.3" y="285.0" width="4" height="11.0" fill="#B4B2A9"/>
<rect x="378.2" y="285.0" width="4" height="11.0" fill="#B4B2A9"/>
<rect x="385.1" y="285.0" width="4" height="11.0" fill="#B4B2A9"/>
<rect x="392.1" y="285.0" width="4" height="11.0" fill="#B4B2A9"/>
<rect x="399.0" y="285.0" width="4" height="11.0" fill="#B4B2A9"/>
<rect x="405.9" y="285.0" width="4" height="11.0" fill="#B4B2A9"/>
<rect x="412.8" y="285.0" width="4" height="11.0" fill="#B4B2A9"/>
<rect x="419.8" y="285.0" width="4" height="11.0" fill="#B4B2A9"/>
<rect x="426.7" y="285.0" width="4" height="11.0" fill="#B4B2A9"/>
<rect x="433.6" y="285.0" width="4" height="11.0" fill="#B4B2A9"/>
<rect x="440.5" y="285.0" width="4" height="11.0" fill="#B4B2A9"/>
<rect x="447.4" y="285.0" width="4" height="11.0" fill="#B4B2A9"/>
<rect x="454.4" y="285.0" width="4" height="11.0" fill="#B4B2A9"/>
<rect x="461.3" y="285.0" width="4" height="11.0" fill="#B4B2A9"/>
<rect x="468.2" y="285.0" width="4" height="11.0" fill="#B4B2A9"/>
<rect x="475.1" y="285.0" width="4" height="11.0" fill="#B4B2A9"/>
<rect x="482.0" y="285.0" width="4" height="11.0" fill="#B4B2A9"/>
<rect x="489.0" y="285.0" width="4" height="11.0" fill="#B4B2A9"/>
<rect x="495.9" y="285.0" width="4" height="11.0" fill="#B4B2A9"/>
<rect x="502.8" y="285.0" width="4" height="11.0" fill="#B4B2A9"/>
<rect x="509.7" y="285.0" width="4" height="11.0" fill="#B4B2A9"/>
<rect x="516.7" y="285.0" width="4" height="11.0" fill="#B4B2A9"/>
<rect x="523.6" y="285.0" width="4" height="11.0" fill="#B4B2A9"/>
<rect x="530.5" y="285.0" width="4" height="11.0" fill="#B4B2A9"/>
<rect x="537.4" y="285.0" width="4" height="11.0" fill="#B4B2A9"/>
<rect x="544.3" y="285.0" width="4" height="11.0" fill="#B4B2A9"/>
<rect x="551.3" y="285.0" width="4" height="11.0" fill="#B4B2A9"/>
<rect x="558.2" y="285.0" width="4" height="11.0" fill="#B4B2A9"/>
<rect x="565.1" y="285.0" width="4" height="11.0" fill="#B4B2A9"/>
<rect x="572.0" y="285.0" width="4" height="11.0" fill="#B4B2A9"/>
<rect x="578.9" y="285.0" width="4" height="11.0" fill="#B4B2A9"/>
<rect x="585.9" y="285.0" width="4" height="11.0" fill="#B4B2A9"/>
<rect x="592.8" y="285.0" width="4" height="11.0" fill="#B4B2A9"/>
<rect x="599.7" y="285.0" width="4" height="11.0" fill="#B4B2A9"/>
<rect x="606.6" y="285.0" width="4" height="11.0" fill="#B4B2A9"/>
<rect x="613.6" y="285.0" width="4" height="11.0" fill="#B4B2A9"/>
<rect x="620.5" y="285.0" width="4" height="11.0" fill="#B4B2A9"/>
<rect x="627.4" y="285.0" width="4" height="11.0" fill="#B4B2A9"/>
<rect x="634.3" y="285.0" width="4" height="11.0" fill="#B4B2A9"/>
<rect x="641.2" y="285.0" width="4" height="11.0" fill="#B4B2A9"/>
<rect x="648.2" y="285.0" width="4" height="11.0" fill="#B4B2A9"/>
<rect x="655.1" y="285.0" width="4" height="11.0" fill="#B4B2A9"/>
<rect x="662.0" y="285.0" width="4" height="11.0" fill="#B4B2A9"/>
<path d="M48.0 222.0 L54.9 222.0 L61.8 222.0 L68.8 222.0 L75.7 213.9 L82.6 203.6 L89.5 195.2 L96.4 187.7 L103.4 181.3 L110.3 176.0 L117.2 171.5 L124.1 167.4 L131.1 163.8 L138.0 160.8 L144.9 157.8 L151.8 155.2 L158.7 152.8 L165.7 150.7 L172.6 148.8 L179.5 147.1 L186.4 145.3 L193.3 143.8 L200.3 142.3 L207.2 141.1 L214.1 139.8 L221.0 138.7 L228.0 137.6 L234.9 136.6 L241.8 135.7 L248.7 134.9 L255.6 134.0 L262.6 133.1 L269.5 132.5 L276.4 131.9 L283.3 131.2 L290.2 131.2 L297.2 136.8 L304.1 140.0 L311.0 142.3 L317.9 144.5 L324.9 146.2 L331.8 148.1 L338.7 149.6 L345.6 151.3 L352.5 152.2 L359.5 152.4 L366.4 152.4 L373.3 152.4 L380.2 152.2 L387.1 152.2 L394.1 152.0 L401.0 152.0 L407.9 152.0 L414.8 151.8 L421.8 151.8 L428.7 151.6 L435.6 151.6 L442.5 151.6 L449.4 151.6 L456.4 151.3 L463.3 151.3 L470.2 151.3 L477.1 151.3 L484.0 151.1 L491.0 151.1 L497.9 151.1 L504.8 151.1 L511.7 151.1 L518.7 150.9 L525.6 150.9 L532.5 150.9 L539.4 150.9 L546.3 150.9 L553.3 150.9 L560.2 150.9 L567.1 150.9 L574.0 150.7 L580.9 150.7 L587.9 150.7 L594.8 150.7 L601.7 150.7 L608.6 150.7 L615.6 150.7 L622.5 150.7 L629.4 150.7 L636.3 150.7 L643.2 150.7 L650.2 150.7 L657.1 150.7 L664.0 150.7" fill="none" stroke="#5F5E5A" stroke-width="1.5" stroke-dasharray="4 3"/>
<path d="M48.0 211.3H54.9V211.3H61.8V211.3H68.8V211.3H75.7V211.3H82.6V200.6H89.5V200.6H96.4V179.2H103.4V179.2H110.3V168.5H117.2V168.5H124.1V157.8H131.1V157.8H138.0V157.8H144.9V157.8H151.8V147.1H158.7V147.1H165.7V147.1H172.6V147.1H179.5V147.1H186.4V136.4H193.3V136.4H200.3V136.4H207.2V136.4H214.1V136.4H221.0V136.4H228.0V136.4H234.9V136.4H241.8V125.6H248.7V125.6H255.6V125.6H262.6V125.6H269.5V125.6H276.4V125.6H283.3V125.6H290.2V114.9H297.2V114.9H304.1V114.9H311.0V114.9H317.9V114.9H324.9V114.9H331.8V114.9H338.7V114.9H345.6V114.9H352.5V114.9H359.5V114.9H366.4V114.9H373.3V114.9H380.2V114.9H387.1V114.9H394.1V114.9H401.0V125.6H407.9V125.6H414.8V125.6H421.8V136.4H428.7V136.4H435.6V147.1H442.5V147.1H449.4V147.1H456.4V147.1H463.3V147.1H470.2V147.1H477.1V147.1H484.0V147.1H491.0V147.1H497.9V147.1H504.8V147.1H511.7V147.1H518.7V147.1H525.6V147.1H532.5V147.1H539.4V147.1H546.3V147.1H553.3V147.1H560.2V147.1H567.1V147.1H574.0V147.1H580.9V147.1H587.9V147.1H594.8V147.1H601.7V147.1H608.6V147.1H615.6V147.1H622.5V147.1H629.4V147.1H636.3V147.1H643.2V147.1H650.2V147.1H657.1V147.1H664.0V147.1" fill="none" stroke="#534AB7" stroke-width="2.5"/>
<text x="48.0" y="312" text-anchor="middle" font-size="11" fill="#5F5E5A">0 s</text>
<text x="117.2" y="312" text-anchor="middle" font-size="11" fill="#5F5E5A">10 s</text>
<text x="186.4" y="312" text-anchor="middle" font-size="11" fill="#5F5E5A">20 s</text>
<text x="255.6" y="312" text-anchor="middle" font-size="11" fill="#5F5E5A">30 s</text>
<text x="324.9" y="312" text-anchor="middle" font-size="11" fill="#5F5E5A">40 s</text>
<text x="394.1" y="312" text-anchor="middle" font-size="11" fill="#5F5E5A">50 s</text>
<text x="463.3" y="312" text-anchor="middle" font-size="11" fill="#5F5E5A">60 s</text>
<text x="532.5" y="312" text-anchor="middle" font-size="11" fill="#5F5E5A">70 s</text>
<text x="601.7" y="312" text-anchor="middle" font-size="11" fill="#5F5E5A">80 s</text>
<line x1="48" x2="64" y1="330" y2="330" stroke="#534AB7" stroke-width="2.5"/>
<text x="68" y="334" font-size="11" fill="#444441">Game limit</text>
<line x1="136.0" x2="152.0" y1="330" y2="330" stroke="#5F5E5A" stroke-width="1.5" stroke-dasharray="4 3"/>
<text x="156.0" y="334" font-size="11" fill="#444441">Target</text>
<rect x="204.2" y="324" width="6" height="12" fill="#B4B2A9"/>
<text x="219.2" y="334" font-size="11" fill="#444441">Power</text>
<rect x="256.2" y="324" width="16" height="12" fill="#EF9F27" fill-opacity="0.3"/>
<text x="276.2" y="334" font-size="11" fill="#444441">Push bonus</text>
<rect x="344.2" y="324" width="16" height="12" fill="#1D9E75" fill-opacity="0.3"/>
<text x="364.2" y="334" font-size="11" fill="#444441">Coasting</text>
</svg>
